<?xml version="1.0" encoding="UTF-8" standalone="no"?>
<!DOCTYPE svg PUBLIC "-//W3C//DTD SVG 1.1//EN" "http://www.w3.org/Graphics/SVG/1.1/DTD/svg11.dtd">
<svg width="100%" height="100%" viewBox="0 0 312 75" version="1.1" xmlns="http://www.w3.org/2000/svg" xmlns:xlink="http://www.w3.org/1999/xlink" xml:space="preserve" xmlns:serif="http://www.serif.com/" style="fill-rule:evenodd;clip-rule:evenodd;stroke-linecap:square;stroke-linejoin:round;stroke-miterlimit:1.5;">
    <g id="Artboard1" transform="matrix(0.896061,0,0,0.516248,-58.8635,-18.6434)">
        <rect x="65.691" y="36.113" width="347.777" height="143.716" style="fill:none;"/>
        <g transform="matrix(1.116,0,0,1.93705,-44.8661,-141.075)">
            <g transform="matrix(0.28729,0,0,0.28729,64.7381,79.2741)">
                <path d="M334.666,123.779L335.072,222.974L181.807,275.418" style="fill:none;stroke:rgb(57,39,0);stroke-width:8.77px;"/>
                <path d="M177.326,264.858L153.433,121.127L241.867,108.253L247.739,128.277L326.564,112.118L328.488,122.739L177.326,264.858Z" style="fill:url(#_Linear1);stroke:rgb(71,52,5);stroke-width:2.56px;stroke-linecap:round;"/>
                <g transform="matrix(1.15337,0.0467776,-0.0467776,1.15337,-37.6985,-30.3573)">
                    <g transform="matrix(0.785983,-0.0536889,0.0536889,0.785983,58.5822,72.5882)">
                        <g>
                            <g transform="matrix(1.3009,0.0892965,-0.0892965,1.3009,-63.6882,-95.4541)">
                                <path d="M241.628,204.156L242.433,97.549L309.512,97.549L309.512,202.436L241.628,204.156Z" style="fill:rgb(46,46,46);stroke:rgb(47,47,47);stroke-width:1.69px;"/>
                            </g>
                            <g transform="matrix(1.3009,0.0892965,-0.0892965,1.3009,-67.7991,-97.1193)">
                                <path d="M240.979,209.111L242.433,97.549L309.512,97.549L309.512,202.436L240.979,209.111Z" style="fill:url(#_Linear2);stroke:rgb(37,39,39);stroke-width:2.4px;"/>
                            </g>
                            <g transform="matrix(1,0,0,1,-4.26286,-1.19893)">
                                <path d="M250.32,70.275L270.435,72.273" style="fill:none;stroke:rgb(47,47,47);stroke-width:2.2px;stroke-linecap:round;"/>
                            </g>
                            <g transform="matrix(1,0,0,1,-4.52929,3.59679)">
                                <path d="M250.32,70.275L270.435,72.273" style="fill:none;stroke:rgb(47,47,47);stroke-width:2.2px;stroke-linecap:round;"/>
                            </g>
                            <g transform="matrix(1,0,0,1,-8.25929,41.2964)">
                                <path d="M250.32,70.275L270.435,72.273" style="fill:none;stroke:rgb(47,47,47);stroke-width:2.2px;stroke-linecap:round;"/>
                            </g>
                            <g transform="matrix(1,0,0,1,-8.52571,46.0921)">
                                <path d="M250.32,70.275L270.435,72.273" style="fill:none;stroke:rgb(47,47,47);stroke-width:2.2px;stroke-linecap:round;"/>
                            </g>
                            <g transform="matrix(0.712337,-0.0107831,0.0151359,0.999885,61.6251,59.2975)">
                                <path d="M250.32,70.275L270.435,72.273" style="fill:none;stroke:rgb(47,47,47);stroke-width:2.53px;stroke-linecap:round;"/>
                            </g>
                            <g transform="matrix(0.712337,-0.0107831,0.0151359,0.999885,61.5079,64.0956)">
                                <path d="M250.32,70.275L270.435,72.273" style="fill:none;stroke:rgb(47,47,47);stroke-width:2.53px;stroke-linecap:round;"/>
                            </g>
                            <g transform="matrix(2.89673,0.188417,0.188417,1.01872,-493.091,-34.7586)">
                                <path d="M250.32,70.275L270.435,72.273" style="fill:none;stroke:rgb(47,47,47);stroke-width:0.94px;stroke-linecap:round;"/>
                            </g>
                            <g transform="matrix(2.89673,0.188417,0.188417,1.01872,-493.357,-35.025)">
                                <path d="M250.32,70.275L270.435,72.273" style="fill:none;stroke:rgb(47,47,47);stroke-width:0.94px;stroke-linecap:round;"/>
                            </g>
                            <g transform="matrix(2.89673,0.188417,0.188417,1.01872,-494.156,-30.0961)">
                                <path d="M250.32,70.275L270.435,72.273" style="fill:none;stroke:rgb(47,47,47);stroke-width:0.94px;stroke-linecap:round;"/>
                            </g>
                            <g transform="matrix(2.89673,0.188417,0.188417,1.01872,-494.956,-24.6343)">
                                <path d="M250.32,70.275L270.435,72.273" style="fill:none;stroke:rgb(47,47,47);stroke-width:0.94px;stroke-linecap:round;"/>
                            </g>
                            <g transform="matrix(2.89673,0.188417,0.188417,1.01872,-495.489,-18.5065)">
                                <path d="M250.32,70.275L270.435,72.273" style="fill:none;stroke:rgb(47,47,47);stroke-width:0.94px;stroke-linecap:round;"/>
                            </g>
                        </g>
                    </g>
                    <g transform="matrix(0.785983,-0.0536889,0.0536889,0.785983,51.0812,52.6699)">
                        <g>
                            <g transform="matrix(1.3009,0.0892965,-0.0892965,1.3009,-63.6882,-95.4541)">
                                <path d="M241.628,204.156L242.433,97.549L309.512,97.549L309.512,202.436L241.628,204.156Z" style="fill:rgb(46,46,46);stroke:rgb(47,47,47);stroke-width:1.69px;"/>
                            </g>
                            <g transform="matrix(1.3009,0.0892965,-0.0892965,1.3009,-67.7991,-97.1193)">
                                <path d="M240.979,209.111L242.433,97.549L309.512,97.549L309.512,202.436L240.979,209.111Z" style="fill:url(#_Linear3);stroke:rgb(37,39,39);stroke-width:2.4px;"/>
                            </g>
                            <g transform="matrix(1,0,0,1,-4.26286,-1.19893)">
                                <path d="M250.32,70.275L270.435,72.273" style="fill:none;stroke:rgb(47,47,47);stroke-width:2.2px;stroke-linecap:round;"/>
                            </g>
                            <g transform="matrix(1,0,0,1,-4.52929,3.59679)">
                                <path d="M250.32,70.275L270.435,72.273" style="fill:none;stroke:rgb(47,47,47);stroke-width:2.2px;stroke-linecap:round;"/>
                            </g>
                            <g transform="matrix(1,0,0,1,-8.25929,41.2964)">
                                <path d="M250.32,70.275L270.435,72.273" style="fill:none;stroke:rgb(47,47,47);stroke-width:2.2px;stroke-linecap:round;"/>
                            </g>
                            <g transform="matrix(1,0,0,1,-8.52571,46.0921)">
                                <path d="M250.32,70.275L270.435,72.273" style="fill:none;stroke:rgb(47,47,47);stroke-width:2.2px;stroke-linecap:round;"/>
                            </g>
                            <g transform="matrix(0.712337,-0.0107831,0.0151359,0.999885,61.6251,59.2975)">
                                <path d="M250.32,70.275L270.435,72.273" style="fill:none;stroke:rgb(47,47,47);stroke-width:2.53px;stroke-linecap:round;"/>
                            </g>
                            <g transform="matrix(0.712337,-0.0107831,0.0151359,0.999885,61.5079,64.0956)">
                                <path d="M250.32,70.275L270.435,72.273" style="fill:none;stroke:rgb(47,47,47);stroke-width:2.53px;stroke-linecap:round;"/>
                            </g>
                            <g transform="matrix(2.89673,0.188417,0.188417,1.01872,-493.091,-34.7586)">
                                <path d="M250.32,70.275L270.435,72.273" style="fill:none;stroke:rgb(47,47,47);stroke-width:0.94px;stroke-linecap:round;"/>
                            </g>
                            <g transform="matrix(2.89673,0.188417,0.188417,1.01872,-493.357,-35.025)">
                                <path d="M250.32,70.275L270.435,72.273" style="fill:none;stroke:rgb(47,47,47);stroke-width:0.94px;stroke-linecap:round;"/>
                            </g>
                            <g transform="matrix(2.89673,0.188417,0.188417,1.01872,-494.156,-30.0961)">
                                <path d="M250.32,70.275L270.435,72.273" style="fill:none;stroke:rgb(47,47,47);stroke-width:0.94px;stroke-linecap:round;"/>
                            </g>
                            <g transform="matrix(2.89673,0.188417,0.188417,1.01872,-494.956,-24.6343)">
                                <path d="M250.32,70.275L270.435,72.273" style="fill:none;stroke:rgb(47,47,47);stroke-width:0.94px;stroke-linecap:round;"/>
                            </g>
                            <g transform="matrix(2.89673,0.188417,0.188417,1.01872,-495.489,-18.5065)">
                                <path d="M250.32,70.275L270.435,72.273" style="fill:none;stroke:rgb(47,47,47);stroke-width:0.94px;stroke-linecap:round;"/>
                            </g>
                        </g>
                    </g>
                    <g transform="matrix(0.975297,-0.113051,0.113051,0.975297,-11.7501,40.945)">
                        <g transform="matrix(0.998446,0.055721,-0.055721,0.998446,-18.1726,1.50396)">
                            <g transform="matrix(1.3009,0.0892965,-0.0892965,1.3009,-63.6882,-95.4541)">
                                <path d="M241.628,204.156L242.433,97.549L309.512,97.549L309.512,202.436L241.628,204.156Z" style="fill:rgb(46,46,46);stroke:rgb(47,47,47);stroke-width:1.35px;"/>
                            </g>
                            <g transform="matrix(1.3009,0.0892965,-0.0892965,1.3009,-67.7991,-97.1193)">
                                <path d="M240.979,209.111L242.433,97.549L309.512,97.549L309.512,202.436L240.979,209.111Z" style="fill:url(#_Linear4);stroke:rgb(37,39,39);stroke-width:1.93px;"/>
                            </g>
                            <g transform="matrix(1,0,0,1,-4.26286,-1.19893)">
                                <path d="M250.32,70.275L270.435,72.273" style="fill:none;stroke:rgb(47,47,47);stroke-width:1.76px;stroke-linecap:round;"/>
                            </g>
                            <g transform="matrix(1,0,0,1,-4.52929,3.59679)">
                                <path d="M250.32,70.275L270.435,72.273" style="fill:none;stroke:rgb(47,47,47);stroke-width:1.76px;stroke-linecap:round;"/>
                            </g>
                            <g transform="matrix(1,0,0,1,-8.25929,41.2964)">
                                <path d="M250.32,70.275L270.435,72.273" style="fill:none;stroke:rgb(47,47,47);stroke-width:1.76px;stroke-linecap:round;"/>
                            </g>
                            <g transform="matrix(1,0,0,1,-8.52571,46.0921)">
                                <path d="M250.32,70.275L270.435,72.273" style="fill:none;stroke:rgb(47,47,47);stroke-width:1.76px;stroke-linecap:round;"/>
                            </g>
                            <g transform="matrix(0.712337,-0.0107831,0.0151359,0.999885,61.6251,59.2975)">
                                <path d="M250.32,70.275L270.435,72.273" style="fill:none;stroke:rgb(47,47,47);stroke-width:2.03px;stroke-linecap:round;"/>
                            </g>
                            <g transform="matrix(0.712337,-0.0107831,0.0151359,0.999885,61.5079,64.0956)">
                                <path d="M250.32,70.275L270.435,72.273" style="fill:none;stroke:rgb(47,47,47);stroke-width:2.03px;stroke-linecap:round;"/>
                            </g>
                            <g transform="matrix(2.89673,0.188417,0.188417,1.01872,-493.091,-34.7586)">
                                <path d="M250.32,70.275L270.435,72.273" style="fill:none;stroke:rgb(47,47,47);stroke-width:0.75px;stroke-linecap:round;"/>
                            </g>
                            <g transform="matrix(2.89673,0.188417,0.188417,1.01872,-493.357,-35.025)">
                                <path d="M250.32,70.275L270.435,72.273" style="fill:none;stroke:rgb(47,47,47);stroke-width:0.75px;stroke-linecap:round;"/>
                            </g>
                            <g transform="matrix(2.89673,0.188417,0.188417,1.01872,-494.156,-30.0961)">
                                <path d="M250.32,70.275L270.435,72.273" style="fill:none;stroke:rgb(47,47,47);stroke-width:0.75px;stroke-linecap:round;"/>
                            </g>
                            <g transform="matrix(2.89673,0.188417,0.188417,1.01872,-494.956,-24.6343)">
                                <path d="M250.32,70.275L270.435,72.273" style="fill:none;stroke:rgb(47,47,47);stroke-width:0.75px;stroke-linecap:round;"/>
                            </g>
                            <g transform="matrix(2.89673,0.188417,0.188417,1.01872,-495.489,-18.5065)">
                                <path d="M250.32,70.275L270.435,72.273" style="fill:none;stroke:rgb(47,47,47);stroke-width:0.75px;stroke-linecap:round;"/>
                            </g>
                        </g>
                        <g transform="matrix(1.08805,0.0122255,0.0122255,1.0017,-22.0364,-3.05965)">
                            <path d="M218.209,65.208L303.599,77.065" style="fill:none;stroke:rgb(47,47,47);stroke-width:4.26px;stroke-linecap:butt;"/>
                        </g>
                        <g>
                            <g transform="matrix(0.978571,0.205911,-0.205911,0.978571,20.1785,-47.717)">
                                <path d="M226.09,66.551C226.09,66.551 223.468,64.833 221.298,67.422C219.145,69.988 219.974,74.163 224.278,75.609" style="fill:none;stroke:rgb(222,179,12);stroke-width:2.51px;stroke-linecap:round;"/>
                            </g>
                            <g transform="matrix(0.978571,0.205911,-0.205911,0.978571,26.9138,-47.2055)">
                                <path d="M226.09,66.551C226.09,66.551 223.468,64.833 221.298,67.422C219.145,69.988 219.974,74.163 224.278,75.609" style="fill:none;stroke:rgb(222,179,12);stroke-width:2.51px;stroke-linecap:round;"/>
                            </g>
                            <g transform="matrix(0.978571,0.205911,-0.205911,0.978571,33.2228,-45.5856)">
                                <path d="M226.09,66.551C226.09,66.551 223.468,64.833 221.298,67.422C219.145,69.988 219.974,74.163 224.278,75.609" style="fill:none;stroke:rgb(222,179,12);stroke-width:2.51px;stroke-linecap:round;"/>
                            </g>
                            <g transform="matrix(0.978571,0.205911,-0.205911,0.978571,40.2139,-44.8183)">
                                <path d="M226.09,66.551C226.09,66.551 223.468,64.833 221.298,67.422C219.145,69.988 219.974,74.163 224.278,75.609" style="fill:none;stroke:rgb(222,179,12);stroke-width:2.51px;stroke-linecap:round;"/>
                            </g>
                            <g transform="matrix(0.978571,0.205911,-0.205911,0.978571,46.9492,-44.3067)">
                                <path d="M226.09,66.551C226.09,66.551 223.468,64.833 221.298,67.422C219.145,69.988 219.974,74.163 224.278,75.609" style="fill:none;stroke:rgb(222,179,12);stroke-width:2.51px;stroke-linecap:round;"/>
                            </g>
                            <g transform="matrix(0.978571,0.205911,-0.205911,0.978571,53.2582,-42.6868)">
                                <path d="M226.09,66.551C226.09,66.551 223.468,64.833 221.298,67.422C219.145,69.988 219.974,74.163 224.278,75.609" style="fill:none;stroke:rgb(222,179,12);stroke-width:2.51px;stroke-linecap:round;"/>
                            </g>
                            <g transform="matrix(0.978571,0.205911,-0.205911,0.978571,60.505,-41.749)">
                                <path d="M226.09,66.551C226.09,66.551 223.468,64.833 221.298,67.422C219.145,69.988 219.974,74.163 224.278,75.609" style="fill:none;stroke:rgb(222,179,12);stroke-width:2.51px;stroke-linecap:round;"/>
                            </g>
                            <g transform="matrix(0.978571,0.205911,-0.205911,0.978571,67.2403,-41.2375)">
                                <path d="M226.09,66.551C226.09,66.551 223.468,64.833 221.298,67.422C219.145,69.988 219.974,74.163 224.278,75.609" style="fill:none;stroke:rgb(222,179,12);stroke-width:2.51px;stroke-linecap:round;"/>
                            </g>
                            <g transform="matrix(0.978571,0.205911,-0.205911,0.978571,73.5493,-39.6176)">
                                <path d="M226.09,66.551C226.09,66.551 223.468,64.833 221.298,67.422C219.145,69.988 219.974,74.163 224.278,75.609" style="fill:none;stroke:rgb(222,179,12);stroke-width:2.51px;stroke-linecap:round;"/>
                            </g>
                            <g transform="matrix(0.978571,0.205911,-0.205911,0.978571,80.5404,-38.765)">
                                <path d="M226.09,66.551C226.09,66.551 223.468,64.833 221.298,67.422C219.145,69.988 219.974,74.163 224.278,75.609" style="fill:none;stroke:rgb(222,179,12);stroke-width:2.51px;stroke-linecap:round;"/>
                            </g>
                            <g transform="matrix(0.978571,0.205911,-0.205911,0.978571,87.2757,-38.2535)">
                                <path d="M226.09,66.551C226.09,66.551 223.468,64.833 221.298,67.422C219.145,69.988 219.974,74.163 224.278,75.609" style="fill:none;stroke:rgb(222,179,12);stroke-width:2.51px;stroke-linecap:round;"/>
                            </g>
                            <g transform="matrix(0.978571,0.205911,-0.205911,0.978571,93.5847,-36.6336)">
                                <path d="M226.09,66.551C226.09,66.551 223.468,64.833 221.298,67.422C219.145,69.988 219.974,74.163 224.278,75.609" style="fill:none;stroke:rgb(222,179,12);stroke-width:2.51px;stroke-linecap:round;"/>
                            </g>
                        </g>
                    </g>
                    <g transform="matrix(0.785983,-0.0536889,0.0536889,0.785983,-7.57442,79.2293)">
                        <g>
                            <g transform="matrix(1.3009,0.0892965,-0.0892965,1.3009,-63.6882,-95.4541)">
                                <path d="M241.628,204.156L242.433,97.549L309.512,97.549L309.512,202.436L241.628,204.156Z" style="fill:rgb(46,46,46);stroke:rgb(47,47,47);stroke-width:1.69px;"/>
                            </g>
                            <g transform="matrix(1.3009,0.0892965,-0.0892965,1.3009,-67.7991,-97.1193)">
                                <path d="M241.875,203.894L242.433,97.549L309.512,97.549L309.512,202.436L241.875,203.894Z" style="fill:url(#_Linear5);stroke:rgb(37,39,39);stroke-width:2.4px;"/>
                            </g>
                            <g transform="matrix(1,0,0,1,-4.26286,-1.19893)">
                                <path d="M250.32,70.275L270.435,72.273" style="fill:none;stroke:rgb(47,47,47);stroke-width:2.2px;stroke-linecap:round;"/>
                            </g>
                            <g transform="matrix(1,0,0,1,-4.52929,3.59679)">
                                <path d="M250.32,70.275L270.435,72.273" style="fill:none;stroke:rgb(47,47,47);stroke-width:2.2px;stroke-linecap:round;"/>
                            </g>
                            <g transform="matrix(1,0,0,1,-8.25929,41.2964)">
                                <path d="M250.32,70.275L270.435,72.273" style="fill:none;stroke:rgb(47,47,47);stroke-width:2.2px;stroke-linecap:round;"/>
                            </g>
                            <g transform="matrix(1,-1.04083e-17,1.04083e-17,1,-10.5634,73.1581)">
                                <path d="M250.32,70.275L270.435,72.273" style="fill:none;stroke:rgb(47,47,47);stroke-width:2.2px;stroke-linecap:round;"/>
                            </g>
                            <g transform="matrix(1,-6.93889e-18,6.93889e-18,1,-11.7933,85.3406)">
                                <path d="M250.32,70.275L270.435,72.273" style="fill:none;stroke:rgb(47,47,47);stroke-width:2.2px;stroke-linecap:round;"/>
                            </g>
                            <g transform="matrix(1,-6.93889e-18,6.93889e-18,1,-12.2511,90.7299)">
                                <path d="M250.32,70.275L270.435,72.273" style="fill:none;stroke:rgb(47,47,47);stroke-width:2.2px;stroke-linecap:round;"/>
                            </g>
                            <g transform="matrix(1,0,0,1,-8.52571,46.0921)">
                                <path d="M250.32,70.275L270.435,72.273" style="fill:none;stroke:rgb(47,47,47);stroke-width:2.2px;stroke-linecap:round;"/>
                            </g>
                            <g transform="matrix(0.712337,-0.0107831,0.0151359,0.999885,61.6251,59.2975)">
                                <path d="M250.32,70.275L270.435,72.273" style="fill:none;stroke:rgb(47,47,47);stroke-width:2.53px;stroke-linecap:round;"/>
                            </g>
                            <g transform="matrix(0.712337,-0.0107831,0.0151359,0.999885,61.5079,64.0956)">
                                <path d="M250.32,70.275L270.435,72.273" style="fill:none;stroke:rgb(47,47,47);stroke-width:2.53px;stroke-linecap:round;"/>
                            </g>
                            <g transform="matrix(2.89673,0.188417,0.188417,1.01872,-493.091,-34.7586)">
                                <path d="M250.32,70.275L270.435,72.273" style="fill:none;stroke:rgb(47,47,47);stroke-width:0.94px;stroke-linecap:round;"/>
                            </g>
                            <g transform="matrix(2.89673,0.188417,0.188417,1.01872,-493.357,-35.025)">
                                <path d="M250.32,70.275L270.435,72.273" style="fill:none;stroke:rgb(47,47,47);stroke-width:0.94px;stroke-linecap:round;"/>
                            </g>
                            <g transform="matrix(2.89673,0.188417,0.188417,1.01872,-494.156,-30.0961)">
                                <path d="M250.32,70.275L270.435,72.273" style="fill:none;stroke:rgb(47,47,47);stroke-width:0.94px;stroke-linecap:round;"/>
                            </g>
                            <g transform="matrix(2.89673,0.188417,0.188417,1.01872,-494.956,-24.6343)">
                                <path d="M250.32,70.275L270.435,72.273" style="fill:none;stroke:rgb(47,47,47);stroke-width:0.94px;stroke-linecap:round;"/>
                            </g>
                            <g transform="matrix(2.89673,0.188417,0.188417,1.01872,-495.489,-18.5065)">
                                <path d="M250.32,70.275L270.435,72.273" style="fill:none;stroke:rgb(47,47,47);stroke-width:0.94px;stroke-linecap:round;"/>
                            </g>
                        </g>
                    </g>
                </g>
                <path d="M177.972,277.132L170.349,161.361L281.977,140.181L281.977,127.907L334.302,116.925L334.302,222.868L177.972,277.132Z" style="fill:url(#_Linear6);stroke:rgb(71,51,5);stroke-width:3.69px;stroke-linecap:round;"/>
            </g>
            <g transform="matrix(2.29717,0,0,2.29717,-130.28,-81.1319)">
                <path d="M138.901,92.63C138.101,92.63 137.461,92.406 136.981,91.958C136.501,91.51 136.261,90.894 136.261,90.11L136.261,88.31C136.261,87.526 136.501,86.91 136.981,86.462C137.461,86.014 138.101,85.79 138.901,85.79C139.661,85.79 140.275,85.994 140.743,86.402C141.211,86.81 141.457,87.366 141.481,88.07L140.401,88.07C140.377,87.646 140.233,87.32 139.969,87.092C139.705,86.864 139.349,86.75 138.901,86.75C138.429,86.75 138.051,86.884 137.767,87.152C137.483,87.42 137.341,87.802 137.341,88.298L137.341,90.11C137.341,90.606 137.483,90.99 137.767,91.262C138.051,91.534 138.429,91.67 138.901,91.67C139.349,91.67 139.705,91.554 139.969,91.322C140.233,91.09 140.377,90.766 140.401,90.35L141.481,90.35C141.457,91.054 141.211,91.61 140.743,92.018C140.275,92.426 139.661,92.63 138.901,92.63Z" style="fill-rule:nonzero;"/>
                <path d="M146.005,92.606C145.213,92.606 144.583,92.374 144.115,91.91C143.647,91.446 143.413,90.798 143.413,89.966L143.413,88.454C143.413,87.614 143.645,86.964 144.109,86.504C144.573,86.044 145.205,85.814 146.005,85.814C146.805,85.814 147.437,86.044 147.901,86.504C148.365,86.964 148.597,87.614 148.597,88.454L148.597,89.966C148.597,90.798 148.363,91.446 147.895,91.91C147.427,92.374 146.797,92.606 146.005,92.606ZM146.005,91.646C146.477,91.646 146.847,91.514 147.115,91.25C147.383,90.986 147.517,90.598 147.517,90.086L147.517,88.334C147.517,87.822 147.383,87.434 147.115,87.17C146.847,86.906 146.477,86.774 146.005,86.774C145.541,86.774 145.173,86.906 144.901,87.17C144.629,87.434 144.493,87.822 144.493,88.334L144.493,90.086C144.493,90.598 144.629,90.986 144.901,91.25C145.173,91.514 145.541,91.646 146.005,91.646Z" style="fill-rule:nonzero;"/>
                <path d="M150.325,92.51L150.325,85.91L151.261,85.91L151.261,86.786L151.285,86.786C151.325,86.49 151.443,86.25 151.639,86.066C151.835,85.882 152.085,85.79 152.389,85.79C152.677,85.79 152.921,85.874 153.121,86.042C153.321,86.21 153.465,86.438 153.553,86.726L153.565,86.726C153.621,86.438 153.747,86.21 153.943,86.042C154.139,85.874 154.389,85.79 154.693,85.79C155.117,85.79 155.455,85.948 155.707,86.264C155.959,86.58 156.085,86.99 156.085,87.494L156.085,92.51L155.077,92.51L155.077,87.482C155.077,87.218 155.013,87.008 154.885,86.852C154.757,86.696 154.581,86.618 154.357,86.618C154.141,86.618 153.969,86.694 153.841,86.846C153.713,86.998 153.649,87.206 153.649,87.47L153.649,92.51L152.761,92.51L152.761,87.482C152.761,87.218 152.697,87.008 152.569,86.852C152.441,86.696 152.269,86.618 152.053,86.618C151.829,86.618 151.653,86.694 151.525,86.846C151.397,86.998 151.333,87.206 151.333,87.47L151.333,92.51L150.325,92.51Z" style="fill-rule:nonzero;"/>
                <path d="M157.909,94.67L157.909,85.91L158.989,85.91L158.989,87.17L159.001,87.17C159.057,86.738 159.245,86.4 159.565,86.156C159.885,85.912 160.293,85.79 160.789,85.79C161.453,85.79 161.981,86.008 162.373,86.444C162.765,86.88 162.961,87.478 162.961,88.238L162.961,90.17C162.961,90.93 162.765,91.53 162.373,91.97C161.981,92.41 161.453,92.63 160.789,92.63C160.293,92.63 159.885,92.506 159.565,92.258C159.245,92.01 159.057,91.674 159.001,91.25L158.965,91.25L158.989,92.75L158.989,94.67L157.909,94.67ZM160.429,91.694C160.885,91.694 161.241,91.574 161.497,91.334C161.753,91.094 161.881,90.706 161.881,90.17L161.881,88.25C161.881,87.706 161.753,87.316 161.497,87.08C161.241,86.844 160.885,86.726 160.429,86.726C159.989,86.726 159.639,86.866 159.379,87.146C159.119,87.426 158.989,87.814 158.989,88.31L158.989,90.11C158.989,90.606 159.119,90.994 159.379,91.274C159.639,91.554 159.989,91.694 160.429,91.694Z" style="fill-rule:nonzero;"/>
                <path d="M165.349,92.51L165.349,85.91L166.429,85.91L166.429,87.17L166.453,87.17C166.509,86.746 166.689,86.41 166.993,86.162C167.297,85.914 167.705,85.79 168.217,85.79C168.905,85.79 169.435,85.996 169.807,86.408C170.179,86.82 170.365,87.406 170.365,88.166L170.365,88.73L169.285,88.73L169.285,88.166C169.285,87.206 168.817,86.726 167.881,86.726C167.409,86.726 167.049,86.862 166.801,87.134C166.553,87.406 166.429,87.798 166.429,88.31L166.429,92.51L165.349,92.51Z" style="fill-rule:nonzero;"/>
                <path d="M174.805,92.63C174.029,92.63 173.403,92.396 172.927,91.928C172.451,91.46 172.213,90.814 172.213,89.99L172.213,88.43C172.213,87.606 172.451,86.96 172.927,86.492C173.403,86.024 174.029,85.79 174.805,85.79C175.325,85.79 175.779,85.894 176.167,86.102C176.555,86.31 176.857,86.602 177.073,86.978C177.289,87.354 177.397,87.798 177.397,88.31L177.397,89.486L173.269,89.486L173.269,90.11C173.269,90.598 173.409,90.984 173.689,91.268C173.969,91.552 174.341,91.694 174.805,91.694C175.205,91.694 175.535,91.616 175.795,91.46C176.055,91.304 176.213,91.094 176.269,90.83L177.349,90.83C177.277,91.382 177.009,91.82 176.545,92.144C176.081,92.468 175.501,92.63 174.805,92.63ZM173.269,88.646L176.341,88.646L176.341,88.31C176.341,87.79 176.207,87.388 175.939,87.104C175.671,86.82 175.293,86.678 174.805,86.678C174.317,86.678 173.939,86.82 173.671,87.104C173.403,87.388 173.269,87.79 173.269,88.31L173.269,88.646Z" style="fill-rule:nonzero;"/>
                <path d="M181.741,92.606C181.005,92.606 180.435,92.44 180.031,92.108C179.627,91.776 179.425,91.306 179.425,90.698L180.505,90.698C180.505,91.002 180.613,91.24 180.829,91.412C181.045,91.584 181.349,91.67 181.741,91.67L182.269,91.67C182.669,91.67 182.979,91.582 183.199,91.406C183.419,91.23 183.529,90.982 183.529,90.662C183.529,90.094 183.269,89.774 182.749,89.702L180.925,89.438C180.477,89.374 180.129,89.188 179.881,88.88C179.633,88.572 179.509,88.166 179.509,87.662C179.509,87.086 179.707,86.634 180.103,86.306C180.499,85.978 181.045,85.814 181.741,85.814L182.269,85.814C182.909,85.814 183.431,85.972 183.835,86.288C184.239,86.604 184.457,87.018 184.489,87.53L183.397,87.53C183.381,87.298 183.271,87.106 183.067,86.954C182.863,86.802 182.597,86.726 182.269,86.726L181.741,86.726C181.373,86.726 181.085,86.81 180.877,86.978C180.669,87.146 180.565,87.374 180.565,87.662C180.565,88.126 180.777,88.39 181.201,88.454L182.905,88.694C184.025,88.854 184.585,89.51 184.585,90.662C184.585,91.278 184.383,91.756 183.979,92.096C183.575,92.436 183.005,92.606 182.269,92.606L181.741,92.606Z" style="fill-rule:nonzero;"/>
                <path d="M188.941,92.606C188.205,92.606 187.635,92.44 187.231,92.108C186.827,91.776 186.625,91.306 186.625,90.698L187.705,90.698C187.705,91.002 187.813,91.24 188.029,91.412C188.245,91.584 188.549,91.67 188.941,91.67L189.469,91.67C189.869,91.67 190.179,91.582 190.399,91.406C190.619,91.23 190.729,90.982 190.729,90.662C190.729,90.094 190.469,89.774 189.949,89.702L188.125,89.438C187.677,89.374 187.329,89.188 187.081,88.88C186.833,88.572 186.709,88.166 186.709,87.662C186.709,87.086 186.907,86.634 187.303,86.306C187.699,85.978 188.245,85.814 188.941,85.814L189.469,85.814C190.109,85.814 190.631,85.972 191.035,86.288C191.439,86.604 191.657,87.018 191.689,87.53L190.597,87.53C190.581,87.298 190.471,87.106 190.267,86.954C190.063,86.802 189.797,86.726 189.469,86.726L188.941,86.726C188.573,86.726 188.285,86.81 188.077,86.978C187.869,87.146 187.765,87.374 187.765,87.662C187.765,88.126 187.977,88.39 188.401,88.454L190.105,88.694C191.225,88.854 191.785,89.51 191.785,90.662C191.785,91.278 191.583,91.756 191.179,92.096C190.775,92.436 190.205,92.606 189.469,92.606L188.941,92.606Z" style="fill-rule:nonzero;"/>
                <path d="M193.909,92.51L193.909,83.75L194.989,83.75L194.989,87.17L195.001,87.17C195.057,86.73 195.237,86.39 195.541,86.15C195.845,85.91 196.249,85.79 196.753,85.79C197.417,85.79 197.945,85.994 198.337,86.402C198.729,86.81 198.925,87.366 198.925,88.07L198.925,92.51L197.845,92.51L197.845,88.25C197.845,87.754 197.719,87.372 197.467,87.104C197.215,86.836 196.873,86.702 196.441,86.702C195.993,86.702 195.639,86.842 195.379,87.122C195.119,87.402 194.989,87.798 194.989,88.31L194.989,92.51L193.909,92.51Z" style="fill-rule:nonzero;"/>
            </g>
            <g transform="matrix(1.7756,0,0,1.7756,-136.228,-208.514)">
                <path d="M179.776,203.502L179.776,198.392L181.099,198.392C181.43,198.392 181.716,198.455 181.957,198.581C182.197,198.707 182.384,198.885 182.517,199.113C182.65,199.342 182.716,199.613 182.716,199.925L182.716,201.962C182.716,202.275 182.65,202.547 182.517,202.778C182.384,203.009 182.197,203.187 181.957,203.313C181.716,203.439 181.43,203.502 181.099,203.502L179.776,203.502ZM180.406,202.942L181.099,202.942C181.407,202.942 181.649,202.856 181.824,202.683C181.999,202.511 182.086,202.27 182.086,201.962L182.086,199.925C182.086,199.622 181.999,199.384 181.824,199.211C181.649,199.039 181.407,198.952 181.099,198.952L180.406,198.952L180.406,202.942Z" style="fill-rule:nonzero;"/>
                <path d="M184.116,203.502L184.116,199.652L184.746,199.652L184.746,200.387L184.76,200.387C184.793,200.14 184.898,199.944 185.075,199.799C185.252,199.655 185.49,199.582 185.789,199.582C186.19,199.582 186.5,199.703 186.717,199.943C186.934,200.183 187.042,200.525 187.042,200.968L187.042,201.297L186.412,201.297L186.412,200.968C186.412,200.408 186.139,200.128 185.593,200.128C185.318,200.128 185.108,200.208 184.963,200.366C184.818,200.525 184.746,200.754 184.746,201.052L184.746,203.502L184.116,203.502Z" style="fill-rule:nonzero;"/>
                <path d="M189.296,203.572C188.899,203.572 188.584,203.462 188.351,203.24C188.118,203.018 188.001,202.728 188.001,202.368C188.001,202.13 188.055,201.923 188.162,201.745C188.269,201.568 188.419,201.429 188.61,201.329C188.801,201.229 189.021,201.178 189.268,201.178L190.458,201.178L190.458,200.877C190.458,200.378 190.185,200.128 189.639,200.128C189.396,200.128 189.2,200.173 189.051,200.261C188.902,200.35 188.822,200.474 188.813,200.632L188.183,200.632C188.206,200.329 188.348,200.078 188.607,199.88C188.866,199.682 189.21,199.582 189.639,199.582C190.106,199.582 190.464,199.694 190.714,199.918C190.963,200.142 191.088,200.455 191.088,200.856L191.088,203.502L190.465,203.502L190.465,202.802L190.451,202.802C190.414,203.04 190.295,203.228 190.094,203.366C189.893,203.504 189.627,203.572 189.296,203.572ZM189.45,203.04C189.758,203.04 190.003,202.966 190.185,202.816C190.367,202.667 190.458,202.464 190.458,202.207L190.458,201.668L189.338,201.668C189.133,201.668 188.966,201.73 188.838,201.854C188.709,201.978 188.645,202.142 188.645,202.347C188.645,202.562 188.716,202.731 188.859,202.855C189.001,202.979 189.198,203.04 189.45,203.04Z" style="fill-rule:nonzero;"/>
                <path d="M192.859,204.762L192.859,204.188L193.944,204.188C194.163,204.188 194.336,204.127 194.462,204.003C194.588,203.879 194.651,203.712 194.651,203.502L194.651,203.152L194.665,202.522L194.644,202.522C194.607,202.751 194.497,202.927 194.315,203.051C194.133,203.175 193.904,203.236 193.629,203.236C193.232,203.236 192.92,203.11 192.691,202.858C192.462,202.606 192.348,202.261 192.348,201.822L192.348,201.01C192.348,200.572 192.462,200.224 192.691,199.967C192.92,199.711 193.232,199.582 193.629,199.582C193.904,199.582 194.133,199.648 194.315,199.778C194.497,199.909 194.607,200.089 194.644,200.317L194.658,200.317L194.658,199.652L195.281,199.652L195.281,203.502C195.281,203.89 195.161,204.197 194.921,204.423C194.68,204.649 194.352,204.762 193.937,204.762L192.859,204.762ZM193.818,202.711C194.079,202.711 194.285,202.63 194.434,202.466C194.583,202.303 194.658,202.077 194.658,201.787L194.658,201.052C194.658,200.763 194.583,200.537 194.434,200.373C194.285,200.21 194.079,200.128 193.818,200.128C193.552,200.128 193.346,200.205 193.199,200.359C193.052,200.513 192.978,200.721 192.978,200.982L192.978,201.857C192.978,202.119 193.052,202.326 193.199,202.48C193.346,202.634 193.552,202.711 193.818,202.711Z" style="fill-rule:nonzero;"/>
                <path d="M201.896,203.572C201.499,203.572 201.184,203.462 200.951,203.24C200.718,203.018 200.601,202.728 200.601,202.368C200.601,202.13 200.655,201.923 200.762,201.745C200.869,201.568 201.019,201.429 201.21,201.329C201.401,201.229 201.621,201.178 201.868,201.178L203.058,201.178L203.058,200.877C203.058,200.378 202.785,200.128 202.239,200.128C201.996,200.128 201.8,200.173 201.651,200.261C201.502,200.35 201.422,200.474 201.413,200.632L200.783,200.632C200.806,200.329 200.948,200.078 201.207,199.88C201.466,199.682 201.81,199.582 202.239,199.582C202.706,199.582 203.064,199.694 203.314,199.918C203.563,200.142 203.688,200.455 203.688,200.856L203.688,203.502L203.065,203.502L203.065,202.802L203.051,202.802C203.014,203.04 202.895,203.228 202.694,203.366C202.493,203.504 202.227,203.572 201.896,203.572ZM202.05,203.04C202.358,203.04 202.603,202.966 202.785,202.816C202.967,202.667 203.058,202.464 203.058,202.207L203.058,201.668L201.938,201.668C201.733,201.668 201.566,201.73 201.438,201.854C201.309,201.978 201.245,202.142 201.245,202.347C201.245,202.562 201.316,202.731 201.459,202.855C201.601,202.979 201.798,203.04 202.05,203.04Z" style="fill-rule:nonzero;"/>
                <path d="M204.976,203.502L204.976,199.652L205.606,199.652L205.606,200.387L205.613,200.387C205.646,200.131 205.751,199.932 205.928,199.792C206.105,199.652 206.341,199.582 206.635,199.582C207.022,199.582 207.33,199.701 207.559,199.939C207.788,200.177 207.902,200.502 207.902,200.912L207.902,203.502L207.272,203.502L207.272,201.024C207.272,200.73 207.199,200.505 207.052,200.349C206.905,200.193 206.705,200.114 206.453,200.114C206.192,200.114 205.985,200.196 205.834,200.359C205.682,200.523 205.606,200.754 205.606,201.052L205.606,203.502L204.976,203.502Z" style="fill-rule:nonzero;"/>
                <path d="M210.408,203.572C210.025,203.572 209.719,203.444 209.488,203.187C209.257,202.931 209.141,202.583 209.141,202.144L209.141,201.017C209.141,200.574 209.255,200.224 209.484,199.967C209.713,199.711 210.021,199.582 210.408,199.582C210.697,199.582 210.937,199.655 211.126,199.799C211.315,199.944 211.428,200.14 211.465,200.387L211.472,200.387L211.458,199.512L211.458,198.392L212.088,198.392L212.088,203.502L211.458,203.502L211.458,202.767L211.451,202.767C211.418,203.019 211.309,203.217 211.122,203.359C210.935,203.501 210.697,203.572 210.408,203.572ZM210.618,203.026C210.879,203.026 211.085,202.945 211.234,202.781C211.383,202.618 211.458,202.392 211.458,202.102L211.458,201.052C211.458,200.763 211.383,200.537 211.234,200.373C211.085,200.21 210.879,200.128 210.618,200.128C210.352,200.128 210.144,200.197 209.995,200.335C209.846,200.473 209.771,200.7 209.771,201.017L209.771,202.137C209.771,202.45 209.846,202.676 209.995,202.816C210.144,202.956 210.352,203.026 210.618,203.026Z" style="fill-rule:nonzero;"/>
                <path d="M217.576,203.502L217.576,198.392L218.899,198.392C219.23,198.392 219.516,198.455 219.757,198.581C219.997,198.707 220.184,198.885 220.317,199.113C220.45,199.342 220.516,199.613 220.516,199.925L220.516,201.962C220.516,202.275 220.45,202.547 220.317,202.778C220.184,203.009 219.997,203.187 219.757,203.313C219.516,203.439 219.23,203.502 218.899,203.502L217.576,203.502ZM218.206,202.942L218.899,202.942C219.207,202.942 219.449,202.856 219.624,202.683C219.799,202.511 219.886,202.27 219.886,201.962L219.886,199.925C219.886,199.622 219.799,199.384 219.624,199.211C219.449,199.039 219.207,198.952 218.899,198.952L218.206,198.952L218.206,202.942Z" style="fill-rule:nonzero;"/>
                <path d="M221.916,203.502L221.916,199.652L222.546,199.652L222.546,200.387L222.56,200.387C222.593,200.14 222.698,199.944 222.875,199.799C223.052,199.655 223.29,199.582 223.589,199.582C223.99,199.582 224.3,199.703 224.517,199.943C224.734,200.183 224.842,200.525 224.842,200.968L224.842,201.297L224.212,201.297L224.212,200.968C224.212,200.408 223.939,200.128 223.393,200.128C223.118,200.128 222.908,200.208 222.763,200.366C222.618,200.525 222.546,200.754 222.546,201.052L222.546,203.502L221.916,203.502Z" style="fill-rule:nonzero;"/>
                <path d="M227.432,203.558C226.97,203.558 226.603,203.423 226.33,203.152C226.057,202.882 225.92,202.504 225.92,202.018L225.92,201.136C225.92,200.646 226.055,200.267 226.326,199.999C226.597,199.731 226.965,199.596 227.432,199.596C227.899,199.596 228.267,199.731 228.538,199.999C228.809,200.267 228.944,200.646 228.944,201.136L228.944,202.018C228.944,202.504 228.808,202.882 228.535,203.152C228.262,203.423 227.894,203.558 227.432,203.558ZM227.432,202.998C227.707,202.998 227.923,202.921 228.08,202.767C228.236,202.613 228.314,202.387 228.314,202.088L228.314,201.066C228.314,200.768 228.236,200.541 228.08,200.387C227.923,200.233 227.707,200.156 227.432,200.156C227.161,200.156 226.947,200.233 226.788,200.387C226.629,200.541 226.55,200.768 226.55,201.066L226.55,202.088C226.55,202.387 226.629,202.613 226.788,202.767C226.947,202.921 227.161,202.998 227.432,202.998Z" style="fill-rule:nonzero;"/>
                <path d="M230.176,204.762L230.176,199.652L230.806,199.652L230.806,200.387L230.813,200.387C230.846,200.135 230.955,199.938 231.142,199.796C231.329,199.654 231.567,199.582 231.856,199.582C232.243,199.582 232.551,199.71 232.78,199.964C233.009,200.218 233.123,200.567 233.123,201.01L233.123,202.137C233.123,202.581 233.009,202.931 232.78,203.187C232.551,203.444 232.243,203.572 231.856,203.572C231.567,203.572 231.329,203.5 231.142,203.355C230.955,203.211 230.846,203.015 230.813,202.767L230.792,202.767L230.806,203.642L230.806,204.762L230.176,204.762ZM231.646,203.026C231.912,203.026 232.12,202.956 232.269,202.816C232.418,202.676 232.493,202.45 232.493,202.137L232.493,201.017C232.493,200.7 232.418,200.473 232.269,200.335C232.12,200.197 231.912,200.128 231.646,200.128C231.389,200.128 231.185,200.21 231.034,200.373C230.882,200.537 230.806,200.763 230.806,201.052L230.806,202.102C230.806,202.392 230.882,202.618 231.034,202.781C231.185,202.945 231.389,203.026 231.646,203.026Z" style="fill-rule:nonzero;"/>
                <path d="M239.178,204.762L239.745,203.264L238.31,199.652L238.989,199.652L239.899,202.032C239.936,202.126 239.971,202.224 240.004,202.326C240.037,202.429 240.06,202.518 240.074,202.592C240.088,202.518 240.111,202.429 240.144,202.326C240.177,202.224 240.209,202.126 240.242,202.032L241.089,199.652L241.754,199.652L239.836,204.762L239.178,204.762Z" style="fill-rule:nonzero;"/>
                <path d="M244.232,203.558C243.77,203.558 243.403,203.423 243.13,203.152C242.857,202.882 242.72,202.504 242.72,202.018L242.72,201.136C242.72,200.646 242.855,200.267 243.126,199.999C243.397,199.731 243.765,199.596 244.232,199.596C244.699,199.596 245.067,199.731 245.338,199.999C245.609,200.267 245.744,200.646 245.744,201.136L245.744,202.018C245.744,202.504 245.608,202.882 245.335,203.152C245.062,203.423 244.694,203.558 244.232,203.558ZM244.232,202.998C244.507,202.998 244.723,202.921 244.88,202.767C245.036,202.613 245.114,202.387 245.114,202.088L245.114,201.066C245.114,200.768 245.036,200.541 244.88,200.387C244.723,200.233 244.507,200.156 244.232,200.156C243.961,200.156 243.747,200.233 243.588,200.387C243.429,200.541 243.35,200.768 243.35,201.066L243.35,202.088C243.35,202.387 243.429,202.613 243.588,202.767C243.747,202.921 243.961,202.998 244.232,202.998Z" style="fill-rule:nonzero;"/>
                <path d="M248.425,203.572C247.982,203.572 247.627,203.441 247.361,203.177C247.095,202.913 246.962,202.555 246.962,202.102L246.962,199.652L247.592,199.652L247.592,202.102C247.592,202.382 247.667,202.605 247.816,202.771C247.965,202.937 248.168,203.019 248.425,203.019C248.686,203.019 248.893,202.937 249.045,202.771C249.196,202.605 249.272,202.382 249.272,202.102L249.272,199.652L249.902,199.652L249.902,202.102C249.902,202.555 249.767,202.913 249.496,203.177C249.225,203.441 248.868,203.572 248.425,203.572Z" style="fill-rule:nonzero;"/>
                <path d="M251.316,203.502L251.316,199.652L251.946,199.652L251.946,200.387L251.96,200.387C251.993,200.14 252.098,199.944 252.275,199.799C252.452,199.655 252.69,199.582 252.989,199.582C253.39,199.582 253.7,199.703 253.917,199.943C254.134,200.183 254.242,200.525 254.242,200.968L254.242,201.297L253.612,201.297L253.612,200.968C253.612,200.408 253.339,200.128 252.793,200.128C252.518,200.128 252.308,200.208 252.163,200.366C252.018,200.525 251.946,200.754 251.946,201.052L251.946,203.502L251.316,203.502Z" style="fill-rule:nonzero;"/>
                <path d="M259.597,203.502L259.597,198.392L262.607,198.392L262.607,198.966L260.213,198.966L260.213,200.66L262.425,200.66L262.425,201.234L260.227,201.234L260.227,203.502L259.597,203.502Z" style="fill-rule:nonzero;"/>
                <path d="M263.727,203.502L263.727,202.928L265.092,202.928L265.092,200.226L263.867,200.226L263.867,199.652L265.722,199.652L265.722,202.928L267.017,202.928L267.017,203.502L263.727,203.502ZM265.337,198.959C265.183,198.959 265.062,198.92 264.973,198.84C264.884,198.761 264.84,198.654 264.84,198.518C264.84,198.378 264.884,198.268 264.973,198.186C265.062,198.104 265.183,198.063 265.337,198.063C265.491,198.063 265.612,198.104 265.701,198.186C265.79,198.268 265.834,198.378 265.834,198.518C265.834,198.654 265.79,198.761 265.701,198.84C265.612,198.92 265.491,198.959 265.337,198.959Z" style="fill-rule:nonzero;"/>
                <path d="M269.992,203.502C269.651,203.502 269.38,203.403 269.177,203.205C268.974,203.007 268.872,202.744 268.872,202.417L268.872,198.966L267.542,198.966L267.542,198.392L269.502,198.392L269.502,202.417C269.502,202.576 269.546,202.701 269.635,202.792C269.724,202.883 269.843,202.928 269.992,202.928L271.182,202.928L271.182,203.502L269.992,203.502Z" style="fill-rule:nonzero;"/>
                <path d="M273.632,203.572C273.179,203.572 272.814,203.436 272.537,203.163C272.259,202.89 272.12,202.513 272.12,202.032L272.12,201.122C272.12,200.642 272.259,200.265 272.537,199.992C272.814,199.719 273.179,199.582 273.632,199.582C273.935,199.582 274.2,199.643 274.427,199.764C274.653,199.886 274.829,200.056 274.955,200.275C275.081,200.495 275.144,200.754 275.144,201.052L275.144,201.738L272.736,201.738L272.736,202.102C272.736,202.387 272.818,202.612 272.981,202.778C273.144,202.944 273.361,203.026 273.632,203.026C273.865,203.026 274.058,202.981 274.21,202.89C274.361,202.799 274.453,202.676 274.486,202.522L275.116,202.522C275.074,202.844 274.918,203.1 274.647,203.289C274.376,203.478 274.038,203.572 273.632,203.572ZM272.736,201.248L274.528,201.248L274.528,201.052C274.528,200.749 274.45,200.515 274.294,200.349C274.137,200.183 273.917,200.1 273.632,200.1C273.347,200.1 273.127,200.183 272.971,200.349C272.814,200.515 272.736,200.749 272.736,201.052L272.736,201.248Z" style="fill-rule:nonzero;"/>
                <path d="M277.678,203.558C277.249,203.558 276.916,203.462 276.681,203.268C276.445,203.074 276.327,202.8 276.327,202.445L276.957,202.445C276.957,202.623 277.02,202.762 277.146,202.862C277.272,202.962 277.449,203.012 277.678,203.012L277.986,203.012C278.219,203.012 278.4,202.961 278.529,202.858C278.657,202.756 278.721,202.611 278.721,202.424C278.721,202.093 278.569,201.906 278.266,201.864L277.202,201.71C276.941,201.673 276.738,201.565 276.593,201.385C276.448,201.205 276.376,200.968 276.376,200.674C276.376,200.338 276.492,200.075 276.723,199.883C276.954,199.692 277.272,199.596 277.678,199.596L277.986,199.596C278.359,199.596 278.664,199.689 278.9,199.873C279.135,200.057 279.262,200.299 279.281,200.597L278.644,200.597C278.635,200.462 278.571,200.35 278.452,200.261C278.333,200.173 278.177,200.128 277.986,200.128L277.678,200.128C277.463,200.128 277.295,200.177 277.174,200.275C277.053,200.373 276.992,200.506 276.992,200.674C276.992,200.945 277.116,201.099 277.363,201.136L278.357,201.276C279.01,201.37 279.337,201.752 279.337,202.424C279.337,202.784 279.219,203.063 278.984,203.261C278.748,203.459 278.415,203.558 277.986,203.558L277.678,203.558Z" style="fill-rule:nonzero;"/>
                <path d="M284.776,203.502L284.776,198.392L285.406,198.392L285.406,200.387L285.413,200.387C285.446,200.131 285.551,199.932 285.728,199.792C285.905,199.652 286.141,199.582 286.435,199.582C286.822,199.582 287.13,199.701 287.359,199.939C287.588,200.177 287.702,200.502 287.702,200.912L287.702,203.502L287.072,203.502L287.072,201.017C287.072,200.728 286.999,200.505 286.852,200.349C286.705,200.193 286.505,200.114 286.253,200.114C285.992,200.114 285.785,200.196 285.634,200.359C285.482,200.523 285.406,200.754 285.406,201.052L285.406,203.502L284.776,203.502Z" style="fill-rule:nonzero;"/>
                <path d="M290.432,203.572C289.979,203.572 289.614,203.436 289.337,203.163C289.059,202.89 288.92,202.513 288.92,202.032L288.92,201.122C288.92,200.642 289.059,200.265 289.337,199.992C289.614,199.719 289.979,199.582 290.432,199.582C290.735,199.582 291,199.643 291.227,199.764C291.453,199.886 291.629,200.056 291.755,200.275C291.881,200.495 291.944,200.754 291.944,201.052L291.944,201.738L289.536,201.738L289.536,202.102C289.536,202.387 289.618,202.612 289.781,202.778C289.944,202.944 290.161,203.026 290.432,203.026C290.665,203.026 290.858,202.981 291.01,202.89C291.161,202.799 291.253,202.676 291.286,202.522L291.916,202.522C291.874,202.844 291.718,203.1 291.447,203.289C291.176,203.478 290.838,203.572 290.432,203.572ZM289.536,201.248L291.328,201.248L291.328,201.052C291.328,200.749 291.25,200.515 291.094,200.349C290.937,200.183 290.717,200.1 290.432,200.1C290.147,200.1 289.927,200.183 289.771,200.349C289.614,200.515 289.536,200.749 289.536,201.052L289.536,201.248Z" style="fill-rule:nonzero;"/>
                <path d="M293.316,203.502L293.316,199.652L293.946,199.652L293.946,200.387L293.96,200.387C293.993,200.14 294.098,199.944 294.275,199.799C294.452,199.655 294.69,199.582 294.989,199.582C295.39,199.582 295.7,199.703 295.917,199.943C296.134,200.183 296.242,200.525 296.242,200.968L296.242,201.297L295.612,201.297L295.612,200.968C295.612,200.408 295.339,200.128 294.793,200.128C294.518,200.128 294.308,200.208 294.163,200.366C294.018,200.525 293.946,200.754 293.946,201.052L293.946,203.502L293.316,203.502Z" style="fill-rule:nonzero;"/>
                <path d="M298.832,203.572C298.379,203.572 298.014,203.436 297.737,203.163C297.459,202.89 297.32,202.513 297.32,202.032L297.32,201.122C297.32,200.642 297.459,200.265 297.737,199.992C298.014,199.719 298.379,199.582 298.832,199.582C299.135,199.582 299.4,199.643 299.627,199.764C299.853,199.886 300.029,200.056 300.155,200.275C300.281,200.495 300.344,200.754 300.344,201.052L300.344,201.738L297.936,201.738L297.936,202.102C297.936,202.387 298.018,202.612 298.181,202.778C298.344,202.944 298.561,203.026 298.832,203.026C299.065,203.026 299.258,202.981 299.41,202.89C299.561,202.799 299.653,202.676 299.686,202.522L300.316,202.522C300.274,202.844 300.118,203.1 299.847,203.289C299.576,203.478 299.238,203.572 298.832,203.572ZM297.936,201.248L299.728,201.248L299.728,201.052C299.728,200.749 299.65,200.515 299.494,200.349C299.337,200.183 299.117,200.1 298.832,200.1C298.547,200.1 298.327,200.183 298.171,200.349C298.014,200.515 297.936,200.749 297.936,201.052L297.936,201.248Z" style="fill-rule:nonzero;"/>
                <path d="M303.032,203.572C302.859,203.572 302.721,203.521 302.616,203.418C302.511,203.316 302.458,203.183 302.458,203.019C302.458,202.847 302.511,202.707 302.616,202.599C302.721,202.492 302.859,202.438 303.032,202.438C303.205,202.438 303.344,202.492 303.449,202.599C303.554,202.707 303.606,202.847 303.606,203.019C303.606,203.183 303.554,203.316 303.449,203.418C303.344,203.521 303.205,203.572 303.032,203.572Z" style="fill-rule:nonzero;"/>
            </g>
        </g>
    </g>
    <defs>
        <linearGradient id="_Linear1" x1="0" y1="0" x2="1" y2="0" gradientUnits="userSpaceOnUse" gradientTransform="matrix(98.5858,238.842,-238.842,98.5858,233.456,128.916)"><stop offset="0" style="stop-color:rgb(225,193,0);stop-opacity:1"/><stop offset="1" style="stop-color:rgb(129,110,0);stop-opacity:1"/></linearGradient>
        <linearGradient id="_Linear2" x1="0" y1="0" x2="1" y2="0" gradientUnits="userSpaceOnUse" gradientTransform="matrix(-105.92,78.0046,-78.0046,-105.92,279.786,130.355)"><stop offset="0" style="stop-color:white;stop-opacity:1"/><stop offset="1" style="stop-color:rgb(179,179,179);stop-opacity:1"/></linearGradient>
        <linearGradient id="_Linear3" x1="0" y1="0" x2="1" y2="0" gradientUnits="userSpaceOnUse" gradientTransform="matrix(-105.92,78.0046,-78.0046,-105.92,279.786,130.355)"><stop offset="0" style="stop-color:white;stop-opacity:1"/><stop offset="1" style="stop-color:rgb(179,179,179);stop-opacity:1"/></linearGradient>
        <linearGradient id="_Linear4" x1="0" y1="0" x2="1" y2="0" gradientUnits="userSpaceOnUse" gradientTransform="matrix(-105.92,78.0046,-78.0046,-105.92,279.786,130.355)"><stop offset="0" style="stop-color:white;stop-opacity:1"/><stop offset="1" style="stop-color:rgb(179,179,179);stop-opacity:1"/></linearGradient>
        <linearGradient id="_Linear5" x1="0" y1="0" x2="1" y2="0" gradientUnits="userSpaceOnUse" gradientTransform="matrix(-105.92,78.0046,-78.0046,-105.92,279.786,130.355)"><stop offset="0" style="stop-color:white;stop-opacity:1"/><stop offset="1" style="stop-color:rgb(179,179,179);stop-opacity:1"/></linearGradient>
        <linearGradient id="_Linear6" x1="0" y1="0" x2="1" y2="0" gradientUnits="userSpaceOnUse" gradientTransform="matrix(136.597,-121.507,121.507,136.597,187.968,255.362)"><stop offset="0" style="stop-color:rgb(255,242,0);stop-opacity:1"/><stop offset="1" style="stop-color:rgb(230,255,132);stop-opacity:1"/></linearGradient>
    </defs>
</svg>
