<?xml version="1.0" encoding="UTF-8" standalone="no"?>
<!DOCTYPE svg PUBLIC "-//W3C//DTD SVG 1.1//EN" "http://www.w3.org/Graphics/SVG/1.1/DTD/svg11.dtd">
<svg width="100%" height="100%" viewBox="0 0 312 75" version="1.1" xmlns="http://www.w3.org/2000/svg" xmlns:xlink="http://www.w3.org/1999/xlink" xml:space="preserve" xmlns:serif="http://www.serif.com/" style="fill-rule:evenodd;clip-rule:evenodd;stroke-linecap:square;stroke-linejoin:round;stroke-miterlimit:1.5;">
    <g id="Artboard1" transform="matrix(0.896061,0,0,0.516248,-58.8635,-18.6434)">
        <rect x="65.691" y="36.113" width="347.777" height="143.716" style="fill:none;"/>
        <g transform="matrix(1.116,0,0,1.93705,-44.8661,-141.075)">
            <g transform="matrix(0.28729,0,0,0.28729,64.7381,79.2741)">
                <path d="M334.666,123.779L335.072,222.974L181.807,275.418" style="fill:none;stroke:rgb(57,39,0);stroke-width:8.77px;"/>
                <path d="M177.326,264.858L153.433,121.127L241.867,108.253L247.739,128.277L326.564,112.118L328.488,122.739L177.326,264.858Z" style="fill:url(#_Linear1);stroke:rgb(71,52,5);stroke-width:2.56px;stroke-linecap:round;"/>
                <g transform="matrix(1.15337,0.0467776,-0.0467776,1.15337,-37.6985,-30.3573)">
                    <g transform="matrix(0.785983,-0.0536889,0.0536889,0.785983,58.5822,72.5882)">
                        <g>
                            <g transform="matrix(1.3009,0.0892965,-0.0892965,1.3009,-63.6882,-95.4541)">
                                <path d="M241.628,204.156L242.433,97.549L309.512,97.549L309.512,202.436L241.628,204.156Z" style="fill:rgb(46,46,46);stroke:rgb(47,47,47);stroke-width:1.69px;"/>
                            </g>
                            <g transform="matrix(1.3009,0.0892965,-0.0892965,1.3009,-67.7991,-97.1193)">
                                <path d="M240.979,209.111L242.433,97.549L309.512,97.549L309.512,202.436L240.979,209.111Z" style="fill:url(#_Linear2);stroke:rgb(37,39,39);stroke-width:2.4px;"/>
                            </g>
                            <g transform="matrix(1,0,0,1,-4.26286,-1.19893)">
                                <path d="M250.32,70.275L270.435,72.273" style="fill:none;stroke:rgb(47,47,47);stroke-width:2.2px;stroke-linecap:round;"/>
                            </g>
                            <g transform="matrix(1,0,0,1,-4.52929,3.59679)">
                                <path d="M250.32,70.275L270.435,72.273" style="fill:none;stroke:rgb(47,47,47);stroke-width:2.2px;stroke-linecap:round;"/>
                            </g>
                            <g transform="matrix(1,0,0,1,-8.25929,41.2964)">
                                <path d="M250.32,70.275L270.435,72.273" style="fill:none;stroke:rgb(47,47,47);stroke-width:2.2px;stroke-linecap:round;"/>
                            </g>
                            <g transform="matrix(1,0,0,1,-8.52571,46.0921)">
                                <path d="M250.32,70.275L270.435,72.273" style="fill:none;stroke:rgb(47,47,47);stroke-width:2.2px;stroke-linecap:round;"/>
                            </g>
                            <g transform="matrix(0.712337,-0.0107831,0.0151359,0.999885,61.6251,59.2975)">
                                <path d="M250.32,70.275L270.435,72.273" style="fill:none;stroke:rgb(47,47,47);stroke-width:2.53px;stroke-linecap:round;"/>
                            </g>
                            <g transform="matrix(0.712337,-0.0107831,0.0151359,0.999885,61.5079,64.0956)">
                                <path d="M250.32,70.275L270.435,72.273" style="fill:none;stroke:rgb(47,47,47);stroke-width:2.53px;stroke-linecap:round;"/>
                            </g>
                            <g transform="matrix(2.89673,0.188417,0.188417,1.01872,-493.091,-34.7586)">
                                <path d="M250.32,70.275L270.435,72.273" style="fill:none;stroke:rgb(47,47,47);stroke-width:0.94px;stroke-linecap:round;"/>
                            </g>
                            <g transform="matrix(2.89673,0.188417,0.188417,1.01872,-493.357,-35.025)">
                                <path d="M250.32,70.275L270.435,72.273" style="fill:none;stroke:rgb(47,47,47);stroke-width:0.94px;stroke-linecap:round;"/>
                            </g>
                            <g transform="matrix(2.89673,0.188417,0.188417,1.01872,-494.156,-30.0961)">
                                <path d="M250.32,70.275L270.435,72.273" style="fill:none;stroke:rgb(47,47,47);stroke-width:0.94px;stroke-linecap:round;"/>
                            </g>
                            <g transform="matrix(2.89673,0.188417,0.188417,1.01872,-494.956,-24.6343)">
                                <path d="M250.32,70.275L270.435,72.273" style="fill:none;stroke:rgb(47,47,47);stroke-width:0.94px;stroke-linecap:round;"/>
                            </g>
                            <g transform="matrix(2.89673,0.188417,0.188417,1.01872,-495.489,-18.5065)">
                                <path d="M250.32,70.275L270.435,72.273" style="fill:none;stroke:rgb(47,47,47);stroke-width:0.94px;stroke-linecap:round;"/>
                            </g>
                        </g>
                    </g>
                    <g transform="matrix(0.785983,-0.0536889,0.0536889,0.785983,51.0812,52.6699)">
                        <g>
                            <g transform="matrix(1.3009,0.0892965,-0.0892965,1.3009,-63.6882,-95.4541)">
                                <path d="M241.628,204.156L242.433,97.549L309.512,97.549L309.512,202.436L241.628,204.156Z" style="fill:rgb(46,46,46);stroke:rgb(47,47,47);stroke-width:1.69px;"/>
                            </g>
                            <g transform="matrix(1.3009,0.0892965,-0.0892965,1.3009,-67.7991,-97.1193)">
                                <path d="M240.979,209.111L242.433,97.549L309.512,97.549L309.512,202.436L240.979,209.111Z" style="fill:url(#_Linear3);stroke:rgb(37,39,39);stroke-width:2.4px;"/>
                            </g>
                            <g transform="matrix(1,0,0,1,-4.26286,-1.19893)">
                                <path d="M250.32,70.275L270.435,72.273" style="fill:none;stroke:rgb(47,47,47);stroke-width:2.2px;stroke-linecap:round;"/>
                            </g>
                            <g transform="matrix(1,0,0,1,-4.52929,3.59679)">
                                <path d="M250.32,70.275L270.435,72.273" style="fill:none;stroke:rgb(47,47,47);stroke-width:2.2px;stroke-linecap:round;"/>
                            </g>
                            <g transform="matrix(1,0,0,1,-8.25929,41.2964)">
                                <path d="M250.32,70.275L270.435,72.273" style="fill:none;stroke:rgb(47,47,47);stroke-width:2.2px;stroke-linecap:round;"/>
                            </g>
                            <g transform="matrix(1,0,0,1,-8.52571,46.0921)">
                                <path d="M250.32,70.275L270.435,72.273" style="fill:none;stroke:rgb(47,47,47);stroke-width:2.2px;stroke-linecap:round;"/>
                            </g>
                            <g transform="matrix(0.712337,-0.0107831,0.0151359,0.999885,61.6251,59.2975)">
                                <path d="M250.32,70.275L270.435,72.273" style="fill:none;stroke:rgb(47,47,47);stroke-width:2.53px;stroke-linecap:round;"/>
                            </g>
                            <g transform="matrix(0.712337,-0.0107831,0.0151359,0.999885,61.5079,64.0956)">
                                <path d="M250.32,70.275L270.435,72.273" style="fill:none;stroke:rgb(47,47,47);stroke-width:2.53px;stroke-linecap:round;"/>
                            </g>
                            <g transform="matrix(2.89673,0.188417,0.188417,1.01872,-493.091,-34.7586)">
                                <path d="M250.32,70.275L270.435,72.273" style="fill:none;stroke:rgb(47,47,47);stroke-width:0.94px;stroke-linecap:round;"/>
                            </g>
                            <g transform="matrix(2.89673,0.188417,0.188417,1.01872,-493.357,-35.025)">
                                <path d="M250.32,70.275L270.435,72.273" style="fill:none;stroke:rgb(47,47,47);stroke-width:0.94px;stroke-linecap:round;"/>
                            </g>
                            <g transform="matrix(2.89673,0.188417,0.188417,1.01872,-494.156,-30.0961)">
                                <path d="M250.32,70.275L270.435,72.273" style="fill:none;stroke:rgb(47,47,47);stroke-width:0.94px;stroke-linecap:round;"/>
                            </g>
                            <g transform="matrix(2.89673,0.188417,0.188417,1.01872,-494.956,-24.6343)">
                                <path d="M250.32,70.275L270.435,72.273" style="fill:none;stroke:rgb(47,47,47);stroke-width:0.94px;stroke-linecap:round;"/>
                            </g>
                            <g transform="matrix(2.89673,0.188417,0.188417,1.01872,-495.489,-18.5065)">
                                <path d="M250.32,70.275L270.435,72.273" style="fill:none;stroke:rgb(47,47,47);stroke-width:0.94px;stroke-linecap:round;"/>
                            </g>
                        </g>
                    </g>
                    <g transform="matrix(0.975297,-0.113051,0.113051,0.975297,-11.7501,40.945)">
                        <g transform="matrix(0.998446,0.055721,-0.055721,0.998446,-18.1726,1.50396)">
                            <g transform="matrix(1.3009,0.0892965,-0.0892965,1.3009,-63.6882,-95.4541)">
                                <path d="M241.628,204.156L242.433,97.549L309.512,97.549L309.512,202.436L241.628,204.156Z" style="fill:rgb(46,46,46);stroke:rgb(47,47,47);stroke-width:1.35px;"/>
                            </g>
                            <g transform="matrix(1.3009,0.0892965,-0.0892965,1.3009,-67.7991,-97.1193)">
                                <path d="M240.979,209.111L242.433,97.549L309.512,97.549L309.512,202.436L240.979,209.111Z" style="fill:url(#_Linear4);stroke:rgb(37,39,39);stroke-width:1.93px;"/>
                            </g>
                            <g transform="matrix(1,0,0,1,-4.26286,-1.19893)">
                                <path d="M250.32,70.275L270.435,72.273" style="fill:none;stroke:rgb(47,47,47);stroke-width:1.76px;stroke-linecap:round;"/>
                            </g>
                            <g transform="matrix(1,0,0,1,-4.52929,3.59679)">
                                <path d="M250.32,70.275L270.435,72.273" style="fill:none;stroke:rgb(47,47,47);stroke-width:1.76px;stroke-linecap:round;"/>
                            </g>
                            <g transform="matrix(1,0,0,1,-8.25929,41.2964)">
                                <path d="M250.32,70.275L270.435,72.273" style="fill:none;stroke:rgb(47,47,47);stroke-width:1.76px;stroke-linecap:round;"/>
                            </g>
                            <g transform="matrix(1,0,0,1,-8.52571,46.0921)">
                                <path d="M250.32,70.275L270.435,72.273" style="fill:none;stroke:rgb(47,47,47);stroke-width:1.76px;stroke-linecap:round;"/>
                            </g>
                            <g transform="matrix(0.712337,-0.0107831,0.0151359,0.999885,61.6251,59.2975)">
                                <path d="M250.32,70.275L270.435,72.273" style="fill:none;stroke:rgb(47,47,47);stroke-width:2.03px;stroke-linecap:round;"/>
                            </g>
                            <g transform="matrix(0.712337,-0.0107831,0.0151359,0.999885,61.5079,64.0956)">
                                <path d="M250.32,70.275L270.435,72.273" style="fill:none;stroke:rgb(47,47,47);stroke-width:2.03px;stroke-linecap:round;"/>
                            </g>
                            <g transform="matrix(2.89673,0.188417,0.188417,1.01872,-493.091,-34.7586)">
                                <path d="M250.32,70.275L270.435,72.273" style="fill:none;stroke:rgb(47,47,47);stroke-width:0.75px;stroke-linecap:round;"/>
                            </g>
                            <g transform="matrix(2.89673,0.188417,0.188417,1.01872,-493.357,-35.025)">
                                <path d="M250.32,70.275L270.435,72.273" style="fill:none;stroke:rgb(47,47,47);stroke-width:0.75px;stroke-linecap:round;"/>
                            </g>
                            <g transform="matrix(2.89673,0.188417,0.188417,1.01872,-494.156,-30.0961)">
                                <path d="M250.32,70.275L270.435,72.273" style="fill:none;stroke:rgb(47,47,47);stroke-width:0.75px;stroke-linecap:round;"/>
                            </g>
                            <g transform="matrix(2.89673,0.188417,0.188417,1.01872,-494.956,-24.6343)">
                                <path d="M250.32,70.275L270.435,72.273" style="fill:none;stroke:rgb(47,47,47);stroke-width:0.75px;stroke-linecap:round;"/>
                            </g>
                            <g transform="matrix(2.89673,0.188417,0.188417,1.01872,-495.489,-18.5065)">
                                <path d="M250.32,70.275L270.435,72.273" style="fill:none;stroke:rgb(47,47,47);stroke-width:0.75px;stroke-linecap:round;"/>
                            </g>
                        </g>
                        <g transform="matrix(1.08805,0.0122255,0.0122255,1.0017,-22.0364,-3.05965)">
                            <path d="M218.209,65.208L303.599,77.065" style="fill:none;stroke:rgb(47,47,47);stroke-width:4.26px;stroke-linecap:butt;"/>
                        </g>
                        <g>
                            <g transform="matrix(0.978571,0.205911,-0.205911,0.978571,20.1785,-47.717)">
                                <path d="M226.09,66.551C226.09,66.551 223.468,64.833 221.298,67.422C219.145,69.988 219.974,74.163 224.278,75.609" style="fill:none;stroke:rgb(222,179,12);stroke-width:2.51px;stroke-linecap:round;"/>
                            </g>
                            <g transform="matrix(0.978571,0.205911,-0.205911,0.978571,26.9138,-47.2055)">
                                <path d="M226.09,66.551C226.09,66.551 223.468,64.833 221.298,67.422C219.145,69.988 219.974,74.163 224.278,75.609" style="fill:none;stroke:rgb(222,179,12);stroke-width:2.51px;stroke-linecap:round;"/>
                            </g>
                            <g transform="matrix(0.978571,0.205911,-0.205911,0.978571,33.2228,-45.5856)">
                                <path d="M226.09,66.551C226.09,66.551 223.468,64.833 221.298,67.422C219.145,69.988 219.974,74.163 224.278,75.609" style="fill:none;stroke:rgb(222,179,12);stroke-width:2.51px;stroke-linecap:round;"/>
                            </g>
                            <g transform="matrix(0.978571,0.205911,-0.205911,0.978571,40.2139,-44.8183)">
                                <path d="M226.09,66.551C226.09,66.551 223.468,64.833 221.298,67.422C219.145,69.988 219.974,74.163 224.278,75.609" style="fill:none;stroke:rgb(222,179,12);stroke-width:2.51px;stroke-linecap:round;"/>
                            </g>
                            <g transform="matrix(0.978571,0.205911,-0.205911,0.978571,46.9492,-44.3067)">
                                <path d="M226.09,66.551C226.09,66.551 223.468,64.833 221.298,67.422C219.145,69.988 219.974,74.163 224.278,75.609" style="fill:none;stroke:rgb(222,179,12);stroke-width:2.51px;stroke-linecap:round;"/>
                            </g>
                            <g transform="matrix(0.978571,0.205911,-0.205911,0.978571,53.2582,-42.6868)">
                                <path d="M226.09,66.551C226.09,66.551 223.468,64.833 221.298,67.422C219.145,69.988 219.974,74.163 224.278,75.609" style="fill:none;stroke:rgb(222,179,12);stroke-width:2.51px;stroke-linecap:round;"/>
                            </g>
                            <g transform="matrix(0.978571,0.205911,-0.205911,0.978571,60.505,-41.749)">
                                <path d="M226.09,66.551C226.09,66.551 223.468,64.833 221.298,67.422C219.145,69.988 219.974,74.163 224.278,75.609" style="fill:none;stroke:rgb(222,179,12);stroke-width:2.51px;stroke-linecap:round;"/>
                            </g>
                            <g transform="matrix(0.978571,0.205911,-0.205911,0.978571,67.2403,-41.2375)">
                                <path d="M226.09,66.551C226.09,66.551 223.468,64.833 221.298,67.422C219.145,69.988 219.974,74.163 224.278,75.609" style="fill:none;stroke:rgb(222,179,12);stroke-width:2.51px;stroke-linecap:round;"/>
                            </g>
                            <g transform="matrix(0.978571,0.205911,-0.205911,0.978571,73.5493,-39.6176)">
                                <path d="M226.09,66.551C226.09,66.551 223.468,64.833 221.298,67.422C219.145,69.988 219.974,74.163 224.278,75.609" style="fill:none;stroke:rgb(222,179,12);stroke-width:2.51px;stroke-linecap:round;"/>
                            </g>
                            <g transform="matrix(0.978571,0.205911,-0.205911,0.978571,80.5404,-38.765)">
                                <path d="M226.09,66.551C226.09,66.551 223.468,64.833 221.298,67.422C219.145,69.988 219.974,74.163 224.278,75.609" style="fill:none;stroke:rgb(222,179,12);stroke-width:2.51px;stroke-linecap:round;"/>
                            </g>
                            <g transform="matrix(0.978571,0.205911,-0.205911,0.978571,87.2757,-38.2535)">
                                <path d="M226.09,66.551C226.09,66.551 223.468,64.833 221.298,67.422C219.145,69.988 219.974,74.163 224.278,75.609" style="fill:none;stroke:rgb(222,179,12);stroke-width:2.51px;stroke-linecap:round;"/>
                            </g>
                            <g transform="matrix(0.978571,0.205911,-0.205911,0.978571,93.5847,-36.6336)">
                                <path d="M226.09,66.551C226.09,66.551 223.468,64.833 221.298,67.422C219.145,69.988 219.974,74.163 224.278,75.609" style="fill:none;stroke:rgb(222,179,12);stroke-width:2.51px;stroke-linecap:round;"/>
                            </g>
                        </g>
                    </g>
                    <g transform="matrix(0.785983,-0.0536889,0.0536889,0.785983,-7.57442,79.2293)">
                        <g>
                            <g transform="matrix(1.3009,0.0892965,-0.0892965,1.3009,-63.6882,-95.4541)">
                                <path d="M241.628,204.156L242.433,97.549L309.512,97.549L309.512,202.436L241.628,204.156Z" style="fill:rgb(46,46,46);stroke:rgb(47,47,47);stroke-width:1.69px;"/>
                            </g>
                            <g transform="matrix(1.3009,0.0892965,-0.0892965,1.3009,-67.7991,-97.1193)">
                                <path d="M241.875,203.894L242.433,97.549L309.512,97.549L309.512,202.436L241.875,203.894Z" style="fill:url(#_Linear5);stroke:rgb(37,39,39);stroke-width:2.4px;"/>
                            </g>
                            <g transform="matrix(1,0,0,1,-4.26286,-1.19893)">
                                <path d="M250.32,70.275L270.435,72.273" style="fill:none;stroke:rgb(47,47,47);stroke-width:2.2px;stroke-linecap:round;"/>
                            </g>
                            <g transform="matrix(1,0,0,1,-4.52929,3.59679)">
                                <path d="M250.32,70.275L270.435,72.273" style="fill:none;stroke:rgb(47,47,47);stroke-width:2.2px;stroke-linecap:round;"/>
                            </g>
                            <g transform="matrix(1,0,0,1,-8.25929,41.2964)">
                                <path d="M250.32,70.275L270.435,72.273" style="fill:none;stroke:rgb(47,47,47);stroke-width:2.2px;stroke-linecap:round;"/>
                            </g>
                            <g transform="matrix(1,-1.04083e-17,1.04083e-17,1,-10.5634,73.1581)">
                                <path d="M250.32,70.275L270.435,72.273" style="fill:none;stroke:rgb(47,47,47);stroke-width:2.2px;stroke-linecap:round;"/>
                            </g>
                            <g transform="matrix(1,-6.93889e-18,6.93889e-18,1,-11.7933,85.3406)">
                                <path d="M250.32,70.275L270.435,72.273" style="fill:none;stroke:rgb(47,47,47);stroke-width:2.2px;stroke-linecap:round;"/>
                            </g>
                            <g transform="matrix(1,-6.93889e-18,6.93889e-18,1,-12.2511,90.7299)">
                                <path d="M250.32,70.275L270.435,72.273" style="fill:none;stroke:rgb(47,47,47);stroke-width:2.2px;stroke-linecap:round;"/>
                            </g>
                            <g transform="matrix(1,0,0,1,-8.52571,46.0921)">
                                <path d="M250.32,70.275L270.435,72.273" style="fill:none;stroke:rgb(47,47,47);stroke-width:2.2px;stroke-linecap:round;"/>
                            </g>
                            <g transform="matrix(0.712337,-0.0107831,0.0151359,0.999885,61.6251,59.2975)">
                                <path d="M250.32,70.275L270.435,72.273" style="fill:none;stroke:rgb(47,47,47);stroke-width:2.53px;stroke-linecap:round;"/>
                            </g>
                            <g transform="matrix(0.712337,-0.0107831,0.0151359,0.999885,61.5079,64.0956)">
                                <path d="M250.32,70.275L270.435,72.273" style="fill:none;stroke:rgb(47,47,47);stroke-width:2.53px;stroke-linecap:round;"/>
                            </g>
                            <g transform="matrix(2.89673,0.188417,0.188417,1.01872,-493.091,-34.7586)">
                                <path d="M250.32,70.275L270.435,72.273" style="fill:none;stroke:rgb(47,47,47);stroke-width:0.94px;stroke-linecap:round;"/>
                            </g>
                            <g transform="matrix(2.89673,0.188417,0.188417,1.01872,-493.357,-35.025)">
                                <path d="M250.32,70.275L270.435,72.273" style="fill:none;stroke:rgb(47,47,47);stroke-width:0.94px;stroke-linecap:round;"/>
                            </g>
                            <g transform="matrix(2.89673,0.188417,0.188417,1.01872,-494.156,-30.0961)">
                                <path d="M250.32,70.275L270.435,72.273" style="fill:none;stroke:rgb(47,47,47);stroke-width:0.94px;stroke-linecap:round;"/>
                            </g>
                            <g transform="matrix(2.89673,0.188417,0.188417,1.01872,-494.956,-24.6343)">
                                <path d="M250.32,70.275L270.435,72.273" style="fill:none;stroke:rgb(47,47,47);stroke-width:0.94px;stroke-linecap:round;"/>
                            </g>
                            <g transform="matrix(2.89673,0.188417,0.188417,1.01872,-495.489,-18.5065)">
                                <path d="M250.32,70.275L270.435,72.273" style="fill:none;stroke:rgb(47,47,47);stroke-width:0.94px;stroke-linecap:round;"/>
                            </g>
                        </g>
                    </g>
                </g>
                <path d="M177.972,277.132L170.349,161.361L281.977,140.181L281.977,127.907L334.302,116.925L334.302,222.868L177.972,277.132Z" style="fill:url(#_Linear6);stroke:rgb(71,51,5);stroke-width:3.69px;stroke-linecap:round;"/>
            </g>
            <g transform="matrix(2.29717,0,0,2.29717,-130.28,-81.1319)">
                <g transform="matrix(12,0,0,12,200.005,92.5103)">
                </g>
                <text x="135.205px" y="92.51px" style="font-family:'JetBrainsMonoNF-Regular', 'JetBrainsMono NF';font-size:12px;">compressh</text>
            </g>
            <g transform="matrix(1.7756,0,0,1.7756,-136.228,-208.514)">
                <g transform="matrix(7,0,0,7,305.132,203.502)">
                </g>
                <text x="179.132px" y="203.502px" style="font-family:'JetBrainsMonoNF-Regular', 'JetBrainsMono NF';font-size:7px;">Drag and Drop your Files here.</text>
            </g>
        </g>
    </g>
    <defs>
        <linearGradient id="_Linear1" x1="0" y1="0" x2="1" y2="0" gradientUnits="userSpaceOnUse" gradientTransform="matrix(98.5858,238.842,-238.842,98.5858,233.456,128.916)"><stop offset="0" style="stop-color:rgb(225,193,0);stop-opacity:1"/><stop offset="1" style="stop-color:rgb(129,110,0);stop-opacity:1"/></linearGradient>
        <linearGradient id="_Linear2" x1="0" y1="0" x2="1" y2="0" gradientUnits="userSpaceOnUse" gradientTransform="matrix(-105.92,78.0046,-78.0046,-105.92,279.786,130.355)"><stop offset="0" style="stop-color:white;stop-opacity:1"/><stop offset="1" style="stop-color:rgb(179,179,179);stop-opacity:1"/></linearGradient>
        <linearGradient id="_Linear3" x1="0" y1="0" x2="1" y2="0" gradientUnits="userSpaceOnUse" gradientTransform="matrix(-105.92,78.0046,-78.0046,-105.92,279.786,130.355)"><stop offset="0" style="stop-color:white;stop-opacity:1"/><stop offset="1" style="stop-color:rgb(179,179,179);stop-opacity:1"/></linearGradient>
        <linearGradient id="_Linear4" x1="0" y1="0" x2="1" y2="0" gradientUnits="userSpaceOnUse" gradientTransform="matrix(-105.92,78.0046,-78.0046,-105.92,279.786,130.355)"><stop offset="0" style="stop-color:white;stop-opacity:1"/><stop offset="1" style="stop-color:rgb(179,179,179);stop-opacity:1"/></linearGradient>
        <linearGradient id="_Linear5" x1="0" y1="0" x2="1" y2="0" gradientUnits="userSpaceOnUse" gradientTransform="matrix(-105.92,78.0046,-78.0046,-105.92,279.786,130.355)"><stop offset="0" style="stop-color:white;stop-opacity:1"/><stop offset="1" style="stop-color:rgb(179,179,179);stop-opacity:1"/></linearGradient>
        <linearGradient id="_Linear6" x1="0" y1="0" x2="1" y2="0" gradientUnits="userSpaceOnUse" gradientTransform="matrix(136.597,-121.507,121.507,136.597,187.968,255.362)"><stop offset="0" style="stop-color:rgb(255,242,0);stop-opacity:1"/><stop offset="1" style="stop-color:rgb(230,255,132);stop-opacity:1"/></linearGradient>
    </defs>
</svg>
